# xmcd
#
# Track frame offsets: 
#        182
#        21850
#        43042
#        60580
#        75735
#        93375
#        112897
#        134137
#        153717
#        174445
#        194402
#        211987
#        230445
#        246657
#        268945
#        292722
#        312640
#        332145
#
# Disc length: 4636 seconds
#
# Revision: 0
# Processed by: cddbd v1.5.2PL0 Copyright (c) Steve Scherf et al.
# Submitted via: ExactAudioCopy v0.99pb5
#
DISCID=0e121a12
DTITLE=J.J.Barnes - King Of Northern Soul
DYEAR=1900
DGENRE=
TTITLE0=Whatever Happened To Our Melody
TTITLE1=On Top Of The World
TTITLE2=Talk Of The Grapevine
TTITLE3=Our Love Is In The Pocket
TTITLE4=Try It One More Time
TTITLE5=In And Out Of My Life
TTITLE6=Say It
TTITLE7=Build A Foundation
TTITLE8=Sweet As A Honey Bee
TTITLE9=Eternity
TTITLE10=Happy Road
TTITLE11=That's Just Never Enough
TTITLE12=Please Let Me In
TTITLE13=I've Seen The Light
TTITLE14=Real Humdinger
TTITLE15=You Can Bet Your Love
TTITLE16=Open The Door To Your Heart
TTITLE17=Sweet Sherry
EXTD=
EXTT0=
EXTT1=
EXTT2=
EXTT3=
EXTT4=
EXTT5=
EXTT6=
EXTT7=
EXTT8=
EXTT9=
EXTT10=
EXTT11=
EXTT12=
EXTT13=
EXTT14=
EXTT15=
EXTT16=
EXTT17=
PLAYORDER=
